HIERARCHY
ROOT Hips
{
	OFFSET 0.000000 0.000000 0.000000
	CHANNELS 6 Xposition Yposition Zposition Zrotation Yrotation Xrotation 
	JOINT LHipJoint
	{
		OFFSET 0.000000 0.000000 0.000000
		CHANNELS 3 Zrotation Yrotation Xrotation
		JOINT LeftUpLeg
		{
			OFFSET 1.363060 -1.794630 0.839290
			CHANNELS 3 Zrotation Yrotation Xrotation
			JOINT LeftLeg
			{
				OFFSET 2.448110 -6.726130 0.000000
				CHANNELS 3 Zrotation Yrotation Xrotation
				JOINT LeftFoot
				{
					OFFSET 2.562200 -7.039590 0.000000
					CHANNELS 3 Zrotation Yrotation Xrotation
					JOINT LeftToeBase
					{
						OFFSET 0.157640 -0.433110 2.322550
						CHANNELS 3 Zrotation Yrotation Xrotation
						End Site
						{
							OFFSET 0.000000 0.000000 0.000000
						}
					}
				}
			}
		}
	}
	JOINT RHipJoint
	{
		OFFSET 0.000000 0.000000 0.000000
		CHANNELS 3 Zrotation Yrotation Xrotation
		JOINT RightUpLeg
		{
			OFFSET -1.305520 -1.794630 0.839290
			CHANNELS 3 Zrotation Yrotation Xrotation
			JOINT RightLeg
			{
				OFFSET -2.542530 -6.985550 0.000000
				CHANNELS 3 Zrotation Yrotation Xrotation
				JOINT RightFoot
				{
					OFFSET -2.568260 -7.056230 0.000000
					CHANNELS 3 Zrotation Yrotation Xrotation
					JOINT RightToeBase
					{
						OFFSET -0.164730 -0.452590 2.363150
						CHANNELS 3 Zrotation Yrotation Xrotation
						End Site
						{
							OFFSET 0.000000 0.000000 0.000000
						}
					}
				}
			}
		}
	}
	JOINT LowerBack
	{
		OFFSET 0.000000 0.000000 0.000000
		CHANNELS 3 Zrotation Yrotation Xrotation
		JOINT Spine
		{
			OFFSET 0.028270 2.035590 -0.193380
			CHANNELS 3 Zrotation Yrotation Xrotation
			JOINT Spine1
			{
				OFFSET 0.056720 2.048850 -0.042750
				CHANNELS 3 Zrotation Yrotation Xrotation
				JOINT Neck
				{
					OFFSET 0.000000 0.000000 0.000000
					CHANNELS 3 Zrotation Yrotation Xrotation
					JOINT Neck1
					{
						OFFSET -0.054170 1.746240 0.172020
						CHANNELS 3 Zrotation Yrotation Xrotation
						JOINT Head
						{
							OFFSET 0.104070 1.761360 -0.123970
							CHANNELS 3 Zrotation Yrotation Xrotation
							End Site
							{
								OFFSET 0.000000 0.000000 0.000000
							}
						}
					}
				}
				JOINT LeftShoulder
				{
					OFFSET 0.000000 0.000000 0.000000
					CHANNELS 3 Zrotation Yrotation Xrotation
					JOINT LeftArm
					{
						OFFSET 3.362410 1.200890 -0.311210
						CHANNELS 3 Zrotation Yrotation Xrotation
						JOINT LeftForeArm
						{
							OFFSET 4.983000 -0.000000 -0.000000
							CHANNELS 3 Zrotation Yrotation Xrotation
							JOINT LeftHand
							{
								OFFSET 3.483560 -0.000000 -0.000000
								CHANNELS 3 Zrotation Yrotation Xrotation
								JOINT LeftFingerBase
								{
									OFFSET 0.000000 0.000000 0.000000
									CHANNELS 3 Zrotation Yrotation Xrotation
									JOINT LeftHandIndex1
									{
										OFFSET 0.715260 -0.000000 -0.000000
										CHANNELS 3 Zrotation Yrotation Xrotation
										End Site
										{
											OFFSET 0.000000 0.000000 0.000000
										}
									}
								}
								JOINT LThumb
								{
									OFFSET 0.000000 0.000000 0.000000
									CHANNELS 3 Zrotation Yrotation Xrotation
									End Site
									{
										OFFSET 0.000000 0.000000 0.000000
									}
								}
							}
						}
					}
				}
				JOINT RightShoulder
				{
					OFFSET 0.000000 0.000000 0.000000
					CHANNELS 3 Zrotation Yrotation Xrotation
					JOINT RightArm
					{
						OFFSET -3.136600 1.374050 -0.404650
						CHANNELS 3 Zrotation Yrotation Xrotation
						JOINT RightForeArm
						{
							OFFSET -5.241900 -0.000000 -0.000000
							CHANNELS 3 Zrotation Yrotation Xrotation
							JOINT RightHand
							{
								OFFSET -3.444170 -0.000000 -0.000000
								CHANNELS 3 Zrotation Yrotation Xrotation
								JOINT RightFingerBase
								{
									OFFSET 0.000000 0.000000 0.000000
									CHANNELS 3 Zrotation Yrotation Xrotation
									JOINT RightHandIndex1
									{
										OFFSET -0.622530 -0.000000 -0.000000
										CHANNELS 3 Zrotation Yrotation Xrotation
										End Site
										{
											OFFSET 0.000000 0.000000 0.000000
										}
									}
								}
								JOINT RThumb
								{
									OFFSET 0.000000 0.000000 0.000000
									CHANNELS 3 Zrotation Yrotation Xrotation
									End Site
									{
										OFFSET 0.000000 0.000000 0.000000
									}
								}
							}
						}
					}
				}
			}
		}
	}
}
MOTION
Frames: 7
Frame Time: 0.008333
19.854508 18.283863 15.997417 6.360372 -1.100870 5.723176 -6.202396 3.091370 6.338741 -22.951623 2.812152 7.149683 -0.099613 1.294334 6.449942 0.918743 -11.699317 15.989567 0.594900 4.937600 13.730800 1.368537 -3.450691 2.489244 11.659958 20.701706 -29.348693 -2.508087 -7.482894 24.946541 0.734185 -5.237250 8.702722 -1.356300 -7.372100 20.822500 -4.889490 -5.196531 -5.388115 -3.514794 -7.379774 5.952794 1.671409 -4.093808 1.437384 -20.873123 -20.000487 8.551414 30.959865 -29.062187 0.910981 8.311500 -14.989100 6.013700 -1.684182 -3.437227 -0.208666 -86.916696 -6.133867 29.109674 33.090167 -38.075254 -12.978451 -0.052501 -1.281845 13.374060 15.408163 23.741951 6.557000 -7.125000 0.000000 0.000000 -15.429100 55.178000 -3.924400 5.624744 3.652553 -1.032948 85.752305 -9.434792 -6.972914 -12.583795 15.891795 -1.994049 -0.174495 -1.085542 30.691957 -15.147195 17.657220 -5.094100 7.125000 0.000000 0.000000 8.208100 -10.795900 6.595100 
19.847975 18.286593 16.180438 5.856731 -1.074744 5.206514 -6.130738 3.110672 6.348982 -22.280343 2.568695 6.627042 0.041047 2.296345 9.182393 0.984810 -11.250188 17.085910 0.812100 5.750700 16.062800 1.403765 -3.492958 2.480669 12.309516 22.248847 -27.797177 -2.674797 -7.647862 25.624474 1.277485 -7.720984 7.049120 -0.984000 -6.314000 17.698200 -4.441865 -5.272969 -5.353295 -3.087302 -7.470260 6.314616 1.473854 -4.131306 1.552532 -21.327554 -20.071509 8.958576 31.306170 -29.265064 0.794613 8.456200 -15.136800 6.079800 -1.704669 -3.449079 -0.237957 -86.997624 -5.853611 28.835718 32.939416 -37.949243 -12.860073 -0.070712 -1.278033 13.281172 15.806604 23.754246 6.749000 -7.125000 0.000000 0.000000 -15.012200 55.273700 -3.849900 5.586600 3.687892 -1.028245 85.478240 -8.636014 -6.450303 -12.720493 16.086845 -2.050294 -0.119587 -1.200887 29.970582 -16.877461 19.120628 -6.171500 7.125000 0.000000 0.000000 7.095100 -9.011600 5.943100 
19.852168 18.298684 16.357024 5.469115 -0.962062 4.734045 -6.071496 3.072336 6.289440 -21.842561 2.076168 5.513081 0.338537 3.707950 13.150506 1.021520 -11.371535 17.500604 0.589100 4.914000 13.663500 1.417719 -3.490368 2.493899 13.018647 22.827808 -26.419341 -2.791602 -7.779245 26.146758 1.631940 -9.243584 5.761668 -0.611600 -5.005200 13.923400 -3.877770 -5.280045 -5.050321 -2.882769 -7.484951 6.505156 1.225394 -4.109521 1.414875 -21.346933 -20.209983 9.334690 31.454175 -29.503685 0.663514 8.499700 -15.296000 6.062100 -1.723882 -3.448977 -0.260641 -86.992080 -5.590866 28.819360 32.519477 -37.591244 -12.553281 -0.091482 -1.271947 13.274912 16.066250 23.710560 6.864300 -7.125000 0.000000 0.000000 -14.703100 55.284300 -3.771900 5.565693 3.712561 -1.025584 85.468593 -7.870675 -6.928566 -12.933675 16.421682 -2.130384 -0.049271 -1.302147 30.167284 -19.069074 20.069666 -7.373100 7.125000 0.000000 0.000000 5.684000 -7.675400 4.898700 
19.858214 18.298391 16.529709 4.891272 -0.924108 4.523865 -5.973840 3.001675 6.168727 -21.146681 2.037345 3.814130 0.752023 5.154744 17.330105 1.090193 -11.212339 18.736608 0.800900 5.712000 15.951100 1.409802 -3.428924 2.553576 14.151209 21.904264 -25.910245 -2.857842 -7.900643 26.654181 1.319682 -7.602579 5.454482 -0.428200 -4.199600 11.638900 -3.208960 -5.286854 -4.936585 -2.487971 -7.500357 6.593301 0.963238 -4.087037 1.311981 -20.947266 -20.306614 9.395325 31.160813 -29.561522 0.536738 8.383800 -15.335400 5.929600 -1.773338 -3.465022 -0.278984 -87.022255 -5.439336 28.689881 31.897798 -37.044281 -12.095377 -0.119608 -1.265775 13.472862 16.264551 23.722904 6.967600 -7.125000 0.000000 0.000000 -14.482300 55.338400 -3.732700 5.523030 3.727172 -1.027365 85.415032 -7.233324 -6.542901 -13.297126 16.952085 -2.256784 0.025322 -1.299212 29.476614 -20.126801 19.867952 -7.737200 7.125000 0.000000 0.000000 4.961200 -7.759400 4.262400 
19.845245 18.286106 16.690206 3.716321 -1.138773 4.366854 -5.806546 2.966516 6.048939 -19.763618 2.432289 1.892942 1.207764 6.459034 21.142232 1.205503 -10.676113 20.528425 1.010900 6.397300 17.941700 1.424296 -3.370979 2.614879 16.052999 21.101244 -25.426112 -2.927963 -7.982621 27.107529 1.019569 -5.980625 5.234572 -0.175800 -2.701200 7.448000 -2.475321 -5.332703 -4.913009 -1.520341 -7.560594 6.757543 0.779948 -4.086947 1.272756 -20.590694 -20.322863 9.334512 30.708174 -29.504574 0.474558 8.239100 -15.303400 5.790200 -1.865219 -3.490717 -0.306878 -87.229570 -5.261884 28.085784 31.341482 -36.542013 -11.674215 -0.147425 -1.269589 13.620216 16.421874 23.938853 7.107500 -7.125000 0.000000 0.000000 -14.414600 55.594400 -3.805100 5.434933 3.736739 -1.034026 85.171969 -6.628463 -5.274701 -13.746052 17.588502 -2.416948 0.062229 -1.219481 27.996270 -19.720451 19.220331 -7.316000 7.125000 0.000000 0.000000 5.188000 -8.571400 4.375300 
19.829547 18.255391 16.846900 2.906953 -1.179244 4.237109 -5.645793 2.917395 5.908506 -18.709993 3.076770 -0.028200 1.726189 7.639250 24.737642 1.342513 -10.509499 22.519788 0.780000 5.638600 15.739300 1.431298 -3.326824 2.662333 17.401196 20.340937 -25.037957 -2.998870 -8.074917 27.504565 0.918939 -5.423555 5.034822 -0.075500 -1.772400 4.877000 -2.142249 -5.460307 -4.739422 -0.667216 -7.732371 6.670758 0.788557 -4.144981 1.122604 -20.583615 -20.352599 9.507730 30.305700 -29.638085 0.729666 8.129400 -15.351400 5.785000 -1.955209 -3.494957 -0.328235 -87.616766 -4.830643 27.291187 30.763221 -36.004367 -11.244494 -0.168100 -1.271555 13.832910 16.413273 23.882822 7.096900 -7.125000 0.000000 0.000000 -14.381600 55.545100 -3.778800 5.365502 3.734428 -1.034407 84.895133 -6.331107 -4.066596 -14.225283 18.276830 -2.600538 0.097511 -1.178504 26.614614 -19.725551 19.214840 -7.298200 7.125000 0.000000 0.000000 5.189600 -8.617800 4.371800 
19.831107 18.260266 17.015099 2.568318 -1.034358 4.131278 -5.517347 2.860947 5.763741 -18.114966 3.428385 -1.605128 2.254161 8.644226 27.894155 1.538076 -9.795522 24.950071 0.761300 5.572200 15.548000 1.420250 -3.285394 2.719469 18.107424 18.985820 -24.788065 -3.029679 -8.157324 27.799826 0.675313 -4.096644 4.722940 -0.057900 -1.552100 4.269300 -1.959970 -5.607605 -4.682598 -0.156269 -7.931436 6.571809 0.776894 -4.226855 1.060340 -20.404511 -20.481860 9.586606 29.669688 -29.875199 1.047240 7.915300 -15.433100 5.773700 -2.033217 -3.510910 -0.344327 -88.002182 -4.498187 26.538220 29.954078 -35.229152 -10.656023 -0.212544 -1.263352 14.337443 16.738458 23.837129 7.248500 -7.125000 0.000000 0.000000 -13.991300 55.571500 -3.682300 5.312305 3.734249 -1.031790 84.634138 -6.027599 -3.001501 -14.721337 18.980295 -2.793086 0.173180 -1.144645 25.365298 -20.519986 18.934636 -7.499500 7.125000 0.000000 0.000000 4.633600 -8.847800 3.878800 
